# xmcd CD database file
#
# Track frame offsets:
#	182
#	19217
#	52545
#	73992
#	99205
#	115472
#	138125
#	164592
#	196025
#	227452
#	234860
#
# Disc length: 3432 seconds
#
# Revision: 0
# Processed by: cddbd v1.4PL0 Copyright (c) Steve Scherf et al.
# Submitted via: CDex 1.50
#
DISCID=810d660b
DTITLE=Guido Guidoboni Quintet - Free Fly
DYEAR=1900
DGENRE=Jazz
TTITLE0=Free Fly
TTITLE1=Anavlis
TTITLE2=Waltz For Jimmy
TTITLE3=Song For Lidia
TTITLE4=A Fine Romance
TTITLE5=Virtual Bossa
TTITLE6=Dragus In Fabula
TTITLE7=Freddy Go
TTITLE8=Ghost Of A Chance
TTITLE9=Lotana
TTITLE10=Virtual Bossa - Acid Take
EXTD=
EXTT0=
EXTT1=
EXTT2=
EXTT3=
EXTT4=
EXTT5=
EXTT6=
EXTT7=
EXTT8=
EXTT9=
EXTT10=
PLAYORDER=
